<svg xmlns="http://www.w3.org/2000/svg" xmlns:xlink="http://www.w3.org/1999/xlink" fill="none" version="1.1" width="160" height="160" viewBox="0 0 160 160"><path d="M169.498659,36C170.443026,36,171.374806,36.20693403,172.243334,36.60726279L172.882064,36.94355899L230.515427,71.226513C230.933022,71.47560899999999,231.225235,71.91310899999999,231.325432,72.416904L231.36351000000002,72.805275L231.36351000000002,86.195221C231.36351000000002,86.724144,231.15481599999998,87.21888,230.804054,87.55402000000001L230.515427,87.77347900000001L172.882064,122.056412C172.04835,122.552635,171.138688,122.858803,170.203784,122.961433L169.498659,123L158.7738539,123C157.37165344,123,156.57081699,121.299385,157.23979254,120.029938L157.43816024,119.722755L185.377985,83.7817C185.886948,83.125538,186.575588,82.688042,187.32799,82.528099L187.786163,82.465889L218.766319,80.65863L218.766319,78.341393L187.786163,76.533619C187.012888,76.489536,186.28018600000001,76.151962,185.704002,75.586735L185.377985,75.22081399999999L157.43816024,39.2772582C156.51818496,38.0944607,157.14039259,36.30283284,158.436335,36.034196556L158.7738539,36L169.498659,36ZM308.22767999999996,36C309.74448,36,310.55782999999997,37.9962404,309.56297,39.2776043L281.62413,75.22174799999999C281.01337,76.00613,280.14625,76.479153,279.21827,76.532028L248.23819,78.340755L248.23819,80.65925200000001L279.21827,82.464191C280.14625,82.520103,281.01337,82.994652,281.62413,83.782032L309.56297,119.722404C310.55782999999997,121.003731,309.74448,123,308.22767999999996,123L297.50374999999997,123C296.32333,123,295.16418,122.676224,294.12207,122.055992L236.489182,87.7733C235.966774,87.46395100000001,235.638084,86.856071,235.638084,86.194935L235.638084,72.805088C235.638084,72.14343600000001,235.966774,71.538067,236.489182,71.226692L294.12207,36.94401032C295.16418,36.32378593,296.32333,36,297.50374999999997,36L308.22767999999996,36Z" fill-rule="evenodd" fill="#FFFFFF" fill-opacity="1" transform="matrix(-1,0,0,1,314,0)"/></svg>